<svg xmlns="http://www.w3.org/2000/svg" version="1.1" xmlns:xlink="http://www.w3.org/1999/xlink" xmlns:svgjs="http://svgjs.dev/svgjs" width="1440" height="560" preserveAspectRatio="none" viewBox="0 0 1440 560"><g mask="url(&quot;#SvgjsMask1007&quot;)" fill="none"><rect width="1440" height="560" x="0" y="0" fill="rgba(4, 39, 241, 1)"></rect><path d="M 0,471 C 57.6,430.8 172.8,293.2 288,270 C 403.2,246.8 460.8,392.6 576,355 C 691.2,317.4 748.8,68.6 864,82 C 979.2,95.4 1036.8,423 1152,422 C 1267.2,421 1382.4,146 1440,77L1440 560L0 560z" fill="rgba(3, 52, 233, 1)"></path><path d="M 0,198 C 96,270 288,568 480,558 C 672,548 768,169.8 960,148 C 1152,126.2 1344,388.8 1440,449L1440 560L0 560z" fill="rgba(5, 5, 233, 1)"></path></g><defs><mask id="SvgjsMask1007"><rect width="1440" height="560" fill="#ffffff"></rect></mask></defs></svg>